<svg>
                <g transform="translate(0.000000,22.000000)  scale(0.0430000,-0.0500000)" fill="#be822b" viewbox="0 0 835 48" stroke="none">
                    <path d="M4075 320 l-80 -80 81 -81 81 -81 82 83 82 82 -78 79 c-42 43 -80 78
                    -83 78 -3 0 -41 -36 -85 -80z m101 -71 c10 -17 -13 -36 -27 -22 -12 12 -4 33
                    11 33 5 0 12 -5 16 -11z"/>
                    <path d="M3475 310 c-217 -41 -246 -44 -329 -31 -44 8 -113 16 -153 18 -63 4
                    -77 2 -109 -17 -35 -23 -40 -23 -193 -14 -161 9 -639 7 -701 -3 -19 -3 -468
                    -7 -997 -10 -774 -4 -963 -8 -963 -18 0 -10 64 -12 323 -8 302 5 1338 -10
                    1852 -26 152 -5 291 -3 410 5 198 13 237 10 277 -17 32 -23 94 -24 201 -4 105
                    20 166 19 283 -6 143 -29 228 -29 359 3 61 15 134 30 162 33 51 7 73 18 55 29
                    -5 3 -40 10 -78 16 -38 6 -114 22 -169 35 -101 25 -157 29 -230 15z"/>
                    <path d="M4600 295 c-52 -13 -128 -29 -167 -35 -94 -15 -98 -35 -10 -45 34 -4
                    104 -18 155 -31 108 -28 235 -32 327 -9 101 25 229 29 324 11 117 -22 166 -21
                    204 7 30 21 39 22 157 17 212 -8 668 -5 1310 8 338 8 796 12 1018 10 317 -2
                    402 0 402 10 0 9 -164 12 -787 12 -434 0 -907 5 -1053 11 -344 14 -656 16
                    -851 5 -151 -9 -158 -8 -192 12 -42 27 -103 28 -235 6 -101 -18 -131 -16 -327
                    21 -110 20 -164 18 -275 -10z"/>
                </g>
    </svg>